# xmcd
#
# Track frame offsets: 
#        150
#        15138
#        43988
#        69388
#        83375
#        98713
#        131050
#        147000
#        167038
#        179713
#        198663
#        226600
#        240063
#        255638
#        270250
#        302075
#
# Disc length: 4295 seconds
#
# Revision: 0
# Processed by: cddbd v1.5.2PL0 Copyright (c) Steve Scherf et al.
# Submitted via: ExactAudioCopy v0.95b4
#
DISCID=c210c510
DTITLE=Various Artist - MarSil Productions' Body and Soul (Disk Two)
DYEAR=1983
DGENRE=Soul
TTITLE0=The Unifics - Beginning Of My End
TTITLE1=02-The Chi-Lites - A Lonely Man
TTITLE2=Enchantment - Gloria
TTITLE3=Jimmy Brisco and The Little Beavers - Where Were You When I Need
TTITLE3=ed You
TTITLE4=Black Ivory - Don't Turn Around
TTITLE5=Special Delivery - I Destroyed Your Love (Pts 1 and 2)
TTITLE6=Barbara Mason-Bed And Board
TTITLE7=Glass House - Look What We've Done To Love
TTITLE8=The Manhattans - It's Gonna Take A Lot To Bring Me Back
TTITLE9=Tavares - Remember What I Told You To Forget
TTITLE10=The Ebonys - I'll Try
TTITLE11=The Continental IV - Day By Day
TTITLE12=The Ponderosa Twins Plus One - You Send Me
TTITLE13=The Softones - I'll Prove It
TTITLE14=Black Ivory - You and I
TTITLE15=Jimmy Briscoe and The Little Beavers - My Ebony Princess
EXTD=
EXTT0=
EXTT1=
EXTT2=
EXTT3=
EXTT4=
EXTT5=
EXTT6=
EXTT7=
EXTT8=
EXTT9=
EXTT10=
EXTT11=
EXTT12=
EXTT13=
EXTT14=
EXTT15=
PLAYORDER=
